<svg xmlns="http://www.w3.org/2000/svg" xmlns:xlink="http://www.w3.org/1999/xlink" xml:space="preserve" id="Layer_1" width="512" height="512" enable-background="new 0 0 515.91 728.5" viewBox="0 0 512 512"><defs id="defs7"><linearGradient xlink:href="#linearGradient3374" id="linearGradient3380" x1="447.6" x2="413.9" y1="883.4" y2="910.6" gradientTransform="translate(-322.9 -811.4)" gradientUnits="userSpaceOnUse"/><linearGradient id="linearGradient3374"><stop id="stop3376" offset="0" style="stop-color:#fff;stop-opacity:.43727598"/><stop id="stop3378" offset="1" style="stop-color:#fff;stop-opacity:0"/></linearGradient><filter id="filter3442" color-interpolation-filters="sRGB"><feGaussianBlur id="feGaussianBlur3444" stdDeviation="2.3"/></filter><filter id="filter3478" color-interpolation-filters="sRGB"><feGaussianBlur id="feGaussianBlur3480" stdDeviation="3.5"/></filter></defs><g id="g6983" style="fill:#282828;fill-opacity:1;stroke:none"><rect id="rect2984" width="512" height="512" x="0" y="0" rx="64" ry="64" style="fill:#282828;fill-opacity:1;fill-rule:nonzero;stroke:none"/><g id="g3372" style="fill:#282828;fill-opacity:1;stroke:none" transform="translate(-5338.8 -6028.5)scale(15.99685)"><g id="g3368" style="fill:#282828;fill-opacity:1;stroke:none" transform="translate(.4)"><path id="path3366" d="M355.8 380.4c-.7 1.2-.7 2.7-1 4v.1c-.2 1.5-.6 3-.3 4.3v.2l.3.2.2-.1q.3-.2.3-.6v-.1l.1-.1q1-3.7.9-7.4 0-.2-.2-.3l-.1-.2z" style="fill:#282828;fill-opacity:1;stroke:none"/><path id="path3364" d="M361.8 381.8c-1 .5-1.5 1.7-2.2 2.7v.1h-.1q-1.7 2.5-2.2 5.1 0 .6.4.5l.6-.2q2.4-3.6 3.9-7.6v-.4z" style="fill:#282828;fill-opacity:1;stroke:none" transform="translate(-.5 -.3)"/></g><path id="path3302" d="m345.7 382.3-.6.2q-1 .5-1.1 1.4-.3 1 0 2.1 0 1.2.4 2l.2 1v.2l-.2.1h-.4l-.2-.1v-.3l-.3-.7-1-1.9-1.2-1.6-.8-.5-.8.1q-1 .6-1.2 1.7t0 2.2l.4 1.6.1.5v.4l-.5 1.1s-5.4 14.5 6.3 13.5h.4q3.5-.8 6.4-2l1.4-.6 4-2q2-1 3.5-2.3 1.6-1.3 1.5-2.7-.4-2.2-2.5-3.5a16 16 0 0 0-4.6-1.8l-4.4-1-1.5-.2h-.3l-.2-.1v-1.2l-.2-2.6a5 5 0 0 0-.9-2.4q-.4-.6-1.2-.6z" style="fill:#282828;fill-opacity:1;stroke:none"/></g></g><g id="g24732" style="fill:#fff;fill-opacity:1" transform="translate(-1572 -1430)scale(2.32442)"><path id="path24730" d="M852.4 660a18.4 18.4 0 1 1-36.7 0 18.4 18.4 0 0 1 36.7 0" style="fill:#fff;fill-opacity:1;fill-rule:nonzero;stroke:none" transform="translate(-51.8 -40.8)scale(1.06015)"/><path id="path24702" d="M707.7 811.3c-.1-.3-.2-7-.2-14.7v-14.3H723c-.1-20.5.2-41.3 0-61.7h-8.3l-8-.1-.3-14.7-.3-14.7H723v-8.8c0-20.5 12.3-32.9 33.4-38.2 13-2.6 20-1.8 33.3-1.5l.2 15.7.3 15.8h-8.8c-13.5 0-17.5 3.2-17.5 12.7v4.3h88.3v91.2h14.7v2c.2 11.3-.1 13.4 0 27-.3.3-16.3 0-35.3 0h-34.4v-29h15v-61.8h-48.3c-1 23.3-.5 33.9 0 61.8 5.6.2 11.2-.2 16.8 0l.2 14.8.3 14.2h-36.6c-20.1 0-36.7.3-36.8 0" style="fill:#fff;fill-opacity:1"/></g><path id="rect2984-1" d="M18.7 493.3A64 64 0 0 0 64 512h384c35.5 0 64-28.6 64-64V64c0-17.7-7.1-33.7-18.7-45.3z" style="fill:#000;fill-opacity:.30196078;fill-rule:nonzero;stroke:none"/></svg>